HIERARCHY
ROOT root
{
	OFFSET 0.000000 0.000000 0.000000
	CHANNELS 6 Xposition Yposition Zposition Zrotation Yrotation Xrotation
	JOINT lhip
	{
		OFFSET 0.058581 -0.082280 -0.017664
		CHANNELS 3 Zrotation Yrotation Xrotation
		JOINT lknee
		{
			OFFSET 0.043451 -0.386469 0.008037
			CHANNELS 3 Zrotation Yrotation Xrotation
			JOINT lankle
			{
				OFFSET -0.014790 -0.426874 -0.037428
				CHANNELS 3 Zrotation Yrotation Xrotation
				JOINT ltoe
				{
					OFFSET 0.041054 -0.060286 0.122042
					CHANNELS 3 Zrotation Yrotation Xrotation
					End Site
					{
						OFFSET 0.000000 0.000000 0.000000
					}
				}
			}
		}
	}
	JOINT rhip
	{
		OFFSET -0.060310 -0.090513 -0.013543
		CHANNELS 3 Zrotation Yrotation Xrotation
		JOINT rknee
		{
			OFFSET -0.043257 -0.383688 -0.004843
			CHANNELS 3 Zrotation Yrotation Xrotation
			JOINT rankle
			{
				OFFSET 0.019056 -0.420046 -0.034562
				CHANNELS 3 Zrotation Yrotation Xrotation
				JOINT rtoe
				{
					OFFSET -0.034840 -0.062106 0.130323
					CHANNELS 3 Zrotation Yrotation Xrotation
					End Site
					{
						OFFSET 0.000000 0.000000 0.000000
					}
				}
			}
		}
	}
	JOINT lowerback
	{
		OFFSET 0.004439 0.124404 -0.038385
		CHANNELS 3 Zrotation Yrotation Xrotation
		JOINT upperback
		{
			OFFSET 0.004488 0.137956 0.026820
			CHANNELS 3 Zrotation Yrotation Xrotation
			JOINT chest
			{
				OFFSET -0.002265 0.056032 0.002855
				CHANNELS 3 Zrotation Yrotation Xrotation
				JOINT lowerneck
				{
					OFFSET -0.013390 0.211636 -0.033468
					CHANNELS 3 Zrotation Yrotation Xrotation
					JOINT upperneck
					{
						OFFSET 0.010113 0.088937 0.050410
						CHANNELS 3 Zrotation Yrotation Xrotation
						End Site
						{
							OFFSET 0.000000 0.000000 0.000000
						}
					}
				}
				JOINT lclavicle
				{
					OFFSET 0.071702 0.114000 -0.018898
					CHANNELS 3 Zrotation Yrotation Xrotation
					JOINT lshoulder
					{
						OFFSET 0.122921 0.045205 -0.019046
						CHANNELS 3 Zrotation Yrotation Xrotation
						JOINT lelbow
						{
							OFFSET 0.255332 -0.015649 -0.022946
							CHANNELS 3 Zrotation Yrotation Xrotation
							JOINT lwrist
							{
								OFFSET 0.265709 0.012698 -0.007375
								CHANNELS 3 Zrotation Yrotation Xrotation
								End Site
								{
									OFFSET 0.000000 0.000000 0.000000
								}
							}
						}
					}
				}
				JOINT rclavicle
				{
					OFFSET -0.082954 0.112472 -0.023707
					CHANNELS 3 Zrotation Yrotation Xrotation
					JOINT rshoulder
					{
						OFFSET -0.113228 0.046853 -0.008472
						CHANNELS 3 Zrotation Yrotation Xrotation
						JOINT relbow
						{
							OFFSET -0.260127 -0.014369 -0.031269
							CHANNELS 3 Zrotation Yrotation Xrotation
							JOINT rwrist
							{
								OFFSET -0.269108 0.006794 -0.006027
								CHANNELS 3 Zrotation Yrotation Xrotation
								End Site
								{
									OFFSET 0.000000 0.000000 0.000000
								}
							}
						}
					}
				}
			}
		}
	}
}
MOTION
Frames: 11
Frame Time: 0.033333
0.840938 0.241065 0.712052 86.989619 1.831316 63.507528 7.817765 -1.210142 -31.536674 -8.214113 7.525359 100.036557 1.553000 5.195613 -30.211540 0.000000 -0.000000 0.000000 -3.613370 0.602333 -35.337637 -0.151057 -7.644283 96.337559 -3.013857 -11.437527 -31.134491 0.000000 -0.000000 0.000000 -0.551820 0.668323 45.369818 1.002993 1.647635 -3.812839 0.080402 -0.040736 -0.748088 1.259280 9.407864 3.690192 -5.349993 11.154755 24.398346 -35.262057 -8.853894 -0.210530 -46.633878 -3.295018 7.717332 11.676561 -40.071617 -4.420876 7.068091 -12.073948 -2.359939 32.906419 19.214659 4.795727 34.472373 18.343951 7.275747 -18.506046 34.944238 -20.541992 -7.762535 8.910562 6.085958 
0.862736 0.239945 0.730589 87.609524 2.042742 65.920454 7.637089 -0.863378 -30.082118 -8.428215 6.432896 97.207632 1.509675 4.355186 -31.278815 0.000000 -0.000000 0.000000 -3.190692 0.207844 -33.638797 -0.328632 -7.659082 93.467005 -3.062366 -12.087178 -32.572831 0.000000 -0.000000 0.000000 -0.601484 1.011480 43.184863 1.077830 1.402620 -3.254446 -0.203588 -0.303628 -0.888383 1.451843 11.618561 3.918103 -6.537997 12.132831 24.113613 -35.332085 -7.809714 -0.240448 -46.412255 -2.512656 7.992050 7.002941 -40.253216 4.046490 0.913588 -12.617679 1.191306 33.426069 17.725476 4.553177 34.223584 18.404079 7.292980 -21.060609 39.068836 -20.736630 -7.269530 9.588273 5.748847 
0.881083 0.238993 0.756980 88.407652 2.159877 68.466654 7.029822 -0.236620 -28.364641 -8.965066 4.968370 92.636291 1.753205 4.404180 -31.245000 0.000000 -0.000000 0.000000 -2.776362 -0.321083 -31.793812 -0.193438 -7.524536 89.072359 -2.643453 -12.550559 -32.411612 0.000000 -0.000000 0.000000 -0.537040 1.215222 41.203665 0.738905 1.456992 -3.158707 -0.537750 -0.422060 -0.729670 1.247604 13.462014 3.106280 -7.050783 13.538379 24.188889 -35.195174 -6.749045 -0.634453 -45.986818 -1.755692 8.481438 3.562815 -40.497582 10.122889 -0.997523 -12.658495 3.399296 33.182818 16.016771 3.642952 35.397557 17.463481 7.797367 -23.267982 42.249723 -22.050665 -5.446374 9.746935 3.569006 
0.897503 0.238359 0.790903 89.289994 1.963097 70.667634 6.408468 0.098128 -25.928325 -9.083173 4.118111 86.576268 1.654682 4.257591 -29.617713 0.000000 -0.000000 0.000000 -2.492359 -0.826178 -29.282482 -0.355803 -7.129245 83.412976 -2.288170 -12.589415 -30.735785 0.000000 -0.000000 0.000000 -0.728675 1.601196 39.625956 0.238123 1.439790 -2.835415 -0.611587 -0.386966 -1.049511 0.363989 14.535129 3.089883 -7.212383 15.642247 22.775726 -35.377671 -5.833696 -0.927918 -45.162327 -0.852674 8.523926 1.572580 -40.793396 12.851193 -3.331547 -11.958293 4.277064 32.993365 14.627822 3.034006 36.767748 15.671848 8.379812 -24.579570 44.041588 -23.353881 -3.220880 9.840411 2.280359 
0.912892 0.237523 0.828621 90.598962 2.000387 72.829023 5.703966 0.391332 -23.290371 -9.106033 2.343373 79.675453 0.985687 3.642497 -27.189565 0.000000 -0.000000 0.000000 -1.989698 -1.371049 -26.365146 -1.003404 -7.046059 76.735447 -1.623560 -12.442081 -28.112731 0.000000 -0.000000 0.000000 -0.652734 1.924152 37.606590 -0.164450 1.375119 -2.375868 -0.697436 -0.140863 -1.454495 -0.277335 15.852860 3.787033 -7.018518 17.043263 21.911641 -35.091007 -5.233365 -0.708573 -45.018151 -0.344571 8.098119 1.103717 -40.061247 12.900486 -6.154931 -11.148931 3.894934 32.775928 13.267980 2.984381 38.137004 13.392571 8.695895 -24.685821 44.524991 -22.977990 -1.552980 9.865805 2.405531 
0.928003 0.236917 0.867214 92.348225 2.066301 75.076406 4.741134 0.310712 -20.491166 -9.254698 -0.319975 72.033145 0.336717 3.340990 -24.619747 0.000000 -0.000000 0.000000 -1.372349 -1.983573 -23.394465 -1.581205 -6.964886 69.393288 -1.103299 -12.455436 -24.967339 0.000000 -0.000000 0.000000 -0.435642 2.158322 35.189247 -0.543594 1.303157 -2.110001 -0.718873 0.100193 -1.541800 -1.023204 16.886047 4.673113 -6.762330 18.111536 21.064502 -34.594293 -4.325769 -0.789896 -45.053170 -0.136999 7.680643 0.967146 -39.107737 12.658374 -9.329481 -10.200476 3.131286 32.323404 11.746696 2.775378 39.523782 10.826301 9.464007 -23.371503 44.158963 -20.643733 -0.108388 9.217037 2.843901 
0.942202 0.236798 0.903991 94.285711 1.969574 77.576193 3.672414 -0.519167 -18.061916 -8.820157 -2.411384 64.152145 -0.068130 3.663387 -21.674318 0.000000 -0.000000 0.000000 -0.905845 -2.142191 -21.181209 -2.344450 -7.221009 62.414185 -0.598892 -12.801047 -20.774497 0.000000 -0.000000 0.000000 -0.213390 2.271325 32.434316 -1.056882 1.432303 -2.248993 -0.807967 0.263990 -1.513334 -1.869769 17.469800 6.058697 -6.226737 19.042037 19.625709 -33.857289 -3.302131 -0.556835 -44.927469 0.007125 7.225162 1.003862 -38.640275 11.936577 -12.119669 -9.741247 2.460692 31.874475 10.174559 2.950610 41.355956 8.362387 10.183430 -21.937402 42.764525 -18.455534 1.749256 8.808235 3.329892 
0.957526 0.236776 0.937396 96.248297 1.801257 79.693376 2.708020 -1.422639 -15.210281 -8.061745 -4.218144 56.204093 -0.431305 4.126537 -18.495661 0.000000 -0.000000 0.000000 -0.455988 -2.053380 -19.192903 -3.517081 -7.979133 56.441677 -0.082805 -13.264527 -15.707347 0.000000 -0.000000 0.000000 -0.178199 2.339581 29.513896 -1.349927 1.604049 -1.563704 -0.814417 0.469135 -2.079426 -2.497926 17.725632 7.974539 -5.853045 20.318814 17.882728 -33.203086 -2.470261 0.065979 -44.646574 0.302783 6.849206 1.608890 -38.821886 10.863717 -13.535936 -9.681751 1.851037 31.337061 8.931460 3.374943 43.294268 5.910254 10.734055 -20.465245 40.849581 -16.632843 3.899462 8.081175 3.047555 
0.972732 0.237189 0.965209 97.881262 1.676276 81.450311 2.020577 -2.088991 -12.272975 -7.409867 -6.397808 48.693191 -1.014640 4.502576 -15.246749 0.000000 -0.000000 0.000000 0.003167 -1.547946 -18.251314 -4.745621 -9.105719 52.429040 0.335578 -14.205354 -10.129243 0.000000 -0.000000 0.000000 0.045756 1.920197 26.970779 -1.828571 2.292633 -1.225582 -1.046565 0.919994 -2.264779 -3.338584 17.602056 9.261386 -5.019268 21.252283 16.346741 -32.276241 -1.765774 0.590429 -44.022059 0.401981 6.726268 1.604741 -39.514916 10.376571 -14.203993 -10.268492 0.726881 30.465571 8.166655 3.704784 45.752633 3.525241 11.291397 -19.242250 38.403719 -15.658656 5.427689 7.721068 2.448283 
0.986730 0.237548 0.987200 99.446241 1.586886 82.836485 1.574924 -2.690300 -9.381261 -6.824730 -8.797998 41.816420 -1.434996 4.982079 -12.378528 0.000000 -0.000000 0.000000 0.330546 -1.139174 -18.388914 -5.524745 -10.137386 50.390844 0.246475 -15.042861 -5.273686 0.000000 -0.000000 0.000000 0.174938 1.372697 24.971913 -2.134801 2.958571 -0.982125 -1.230434 1.402064 -2.339417 -3.554253 17.822353 9.940546 -4.342124 21.964486 15.681755 -31.331515 -0.795455 0.766434 -43.308546 0.191179 6.753659 1.312183 -40.720106 10.410908 -13.855444 -10.826567 -0.594234 29.753991 7.387896 3.990856 47.955623 2.072298 11.738167 -18.234610 35.542349 -14.703799 6.617772 7.424991 2.228235 
1.000165 0.237679 1.003099 100.834349 1.573253 83.973836 1.526189 -2.636467 -6.946271 -6.281751 -10.780539 36.120732 -1.906415 5.165762 -9.902262 0.000000 -0.000000 0.000000 0.558186 -0.835308 -18.930212 -5.485462 -11.001769 48.730143 -0.229488 -15.349210 -4.032937 0.000000 -0.000000 0.000000 0.342392 0.839259 23.454272 -2.282809 3.435889 -0.896967 -1.280686 1.666781 -2.447604 -3.501500 18.648197 10.206351 -3.897729 22.118316 15.626387 -30.474147 -0.300244 0.798548 -42.813927 0.644802 6.916281 2.084475 -42.256018 8.907974 -12.657918 -11.537362 -2.070562 29.225514 6.948789 4.276317 49.680027 1.080219 12.010271 -17.238464 32.705115 -13.721814 7.344253 6.923150 2.378784 
